<svg width="70mm" height="27mm" version="1.1" viewBox="0 0 70 27" xmlns="http://www.w3.org/2000/svg">
 <g transform="translate(0,-270)">
  <g stroke-width=".31142" aria-label="Tracker">
   <path d="m8.0989 282.74h-1.3442q-0.56567 0.0912-0.97928 0.0547h-1.8065q-0.60825-0.0243-1.034 0.0487l-0.04866 0.1034 0.04866 0.26155v0.56567q-0.02433 0.51701 0.1034 0.88195l0.15814 0.0487h0.31021q0.3832-0.0243 0.66907 0.0548 0.31021-0.10341 0.56567-0.10341l0.1034 0.10341 0.054742 0.66907-0.054742 0.35886v2.585q0.054742 0.47443 0 0.82722v0.20072q0.079072 0.38928 0 0.67515 0.13381 0.79681 0.054742 1.3442 0.066907 0.0487 0.04866 0.1034v0.87588q0.066907 0.4136-0.04866 0.77247l0.2068 0.62041q0.33454 0 0.56567-0.1034 0.76031 0.15206 1.2895-0.1034v-1.0827q-0.07299-0.49268-0.04866-0.82722v-1.4476q0.012165-0.47444-0.054742-0.82722l0.054742-0.20072v-0.31021l-0.054742-0.2068 0.054742-0.31021-0.054742-0.2068v-3.5643l0.15814 0.0547 0.2068-0.0547 0.1034 0.0547h1.3381q0.19464-1.0462-0.1034-1.916l-0.25546-0.0487z"/>
   <path d="m11.317 282.63q-0.52309 0.1034-0.94278 0.0547-0.22505 0.1399-0.47443 0.15815v0.15206q0.079072 0.71165 0.054742 1.1557l0.04866 0.68732-0.04866 0.2068v0.57784q0.091237 0.72381 0.04866 1.1557v0.37103q-0.012165 0.7968 0.05474 1.3138v0.26155l-0.05474 0.15814 0.05474 0.15814q-0.04258 0.49877 0 0.83938l-0.05474 0.26155q0.04258 0.41969 0 0.73598v0.26155l0.05474 0.15814v2.4695h1.7335l0.15814-0.36495v-1.0523l-0.05474-1.1557-0.05474-0.37103q0.09732-0.6934 0.05474-1.1557v-0.36495q-0.0365-1.0097 0.05474-1.6301l-0.05474-0.15815v-0.41969q0.04258-0.48659 0-0.83938v-0.57783l-0.05474-0.21289v-0.36495l0.05474-0.26154-0.05474-0.15815v-0.94886l0.05474-0.1034q-0.09124-0.4866-0.05474-0.83938-0.31021-0.12165-0.52309-0.15815zm2.0985 0.0547q-0.63866 0.0608-0.62649 0.6265 0.26155 0.49876 0.1034 0.99752 1.3929 0.66907 0.68124 2.8892-0.52309 0.14597-0.68124 0.52917v0.15814q0.09124 0.61433 0.05474 1.0462l0.1034 0.31629q0.43186 0 0.68124 0.31629v0.15814q0.09124 0.36495 0.05474 0.68124v2.0498q-0.05474 0.79072 0.04866 1.3138h0.26763l0.15206-0.0547 0.10948 0.0547h0.15814l0.2068-0.0547q0.57783 0.0669 0.94886 0l0.04866-0.15814v-3.9901q-0.07907-0.19464-0.1034-0.41969l-0.15814-0.36495-0.1034-0.0547q-0.31629-0.31629-0.63258-0.4197v-0.21288q1.4476-1.1009 0.94886-2.9926-0.03041-2.2444-2.2627-2.4147z"/>
   <path d="m19.601 282.45q-0.1399 0.23113-0.36495 0.2068l-0.05474 0.31629 0.1034 0.31021v0.31628l0.10948 0.31021 0.04866 0.36495q0.13382 0.15206 0.1034 0.31629 0.04866 0.27371 0.1034 0.4136l0.05474 0.26155 0.05474 0.36495 0.1034 0.26154 0.04866 0.10341q0 0.48659 0.10948 0.78464l0.04866 0.26154 0.05474 0.20681q0.04258 0.36494 0.15206 0.57175 0 0.30412 0.05474 0.52309 0.07907 0.39536 0.05474 0.68124 0.06082 0.0487 0.04866 0.1034l0.05474 0.1034q0.09124 0.49876 0.2068 0.8333l-0.41969 0.15814q0.03041 0.72382-0.25546 1.253l0.04866 0.36495q0.09124 0.0487 0.1034 0.1034 0.4866-0.0426 0.83938 0.0487 0.09124 1.034 0.36495 1.6727h0.25546l0.15814 0.0487q0.20072-0.0669 0.41969-0.0487h0.15814l0.9367 0.0487v-0.36495l-0.2068-0.8333-0.05474-0.1034-0.04866-0.8333-0.15814-0.2068v-0.21289l-0.1034-0.4136q-0.06082-0.0547-0.05474-0.10949v-0.15206q-0.12773-0.4866-0.15814-0.83938-0.15814-0.51701-0.2068-0.88196l-0.05474-0.36495q-0.16423-0.51093-0.15206-0.94278-0.28588-0.52918-0.26155-0.99144-0.13382-0.41969-0.1034-0.7299-0.06082-0.0791-0.05474-0.15206-0.04258-0.0912-0.1034-0.10949v-0.25546l-0.05474-0.21289-0.04866-0.4136q-0.06082-0.0791-0.05474-0.15815l-0.04866-0.2068v-0.26155q-0.16423-0.66907-0.15814-1.0948-0.17639-0.11557-0.26155-0.26155-0.79072 0.21289-1.3564-0.15814zm-1.0948 3.9658v0.2068l-0.1034 0.41969-0.21289 1.0948q-0.15814 0.52309-0.15206 0.88804l-0.10948 0.2068v0.26155l-0.15206 0.72989-0.1034 0.36495-0.05474 0.31021-0.1034 0.72989q-0.23113 0.67516-0.26155 1.1496-0.16423 0.40753-0.15814 0.78464l0.1034 0.15206h0.31629l0.67515 0.0547q0.46835-0.17031 0.83938-0.15814l0.04866-0.20681 0.05474-0.1034q-0.01216-0.56567 0.1034-0.94278v-0.2068l0.04866-0.10341 0.05474-0.46835v-0.15814l0.05474-0.15815v-0.4136q0.18247-0.41361 0.15206-0.78464l-0.04866-0.20681v-0.15814q-0.06083-0.0791-0.05474-0.15814l-0.1034-1.0401-0.05474-0.2068v-0.21289l-0.04866-0.1034v-0.2068q-0.13381-0.37103-0.1034-0.68124-0.11557-0.46227-0.1034-0.8333l-0.36495-0.1034z"/>
   <path d="m28.122 282.63q-0.02433 0.11557-0.1034 0.15815v1.8734q0.42577 0.23113 0.62649 0.57175v0.3102q-0.04258 0.53526 0.04866 0.9367l0.2068 0.0547 0.1034-0.0547q0.41969-0.24938 0.78464-0.3102 0.21897-0.19464 0.46835-0.21289 0.12773-0.63257-0.05474-1.1922-0.45618-1.77-2.0802-2.135zm-1.1982 0.0547q-0.04866 0.0912-0.1034 0.10341l-0.15814 0.0487-0.25546 0.2068h-0.15814l-0.15814 0.0547q-0.33454 0.21897-0.62649 0.31021l-0.04866 0.15814-0.26155 0.26155-0.04866 0.1034q-0.18247 0.46835-0.36495 0.7299l-0.05474 0.35886-0.04866 0.31629v1.3016l-0.05474 0.25546 0.05474 0.21289q-0.05474 0.3102 0 0.57175v1.1922q-0.03041 0.43186 0 0.7299l-0.05474 0.1034q0 0.41969 0.05474 0.7299v0.57175q-0.01825 0.77856 0.2068 1.3564 0.80289 1.0644 1.8734 1.4537l0.46835-0.1034 0.04866-0.1034q-0.1034-0.52309 0-0.9367-0.07299-0.67516-0.51701-1.0401l-0.1034-0.88804q0.04866-0.49268 0-0.8333l0.04866-0.15206-0.04866-0.20681 0.04866-0.15814v-1.4598q-0.02433-0.38927 0.05474-0.67515-0.07907-0.28588 0-0.51701l-0.05474-0.15814v-0.20681l0.05474-0.15814q-0.1034-0.69949-0.05474-1.1435 0.18247-0.45618 0.62649-0.57175v-0.36495q0-0.4136-0.05474-0.72989 0.06691-0.38928 0.05474-0.67516zm1.7213 7.3841q0.07299 0.70557 0.04866 1.1435-0.24938 0.52309-0.7299 0.68123l0.05474 0.1034-0.1034 0.15207q0.01217 0.26154 0.04866 0.41969v0.2068q-0.06082 0.54742-0.04866 0.88196 1.8065 0.17031 2.287-1.8734 0.24938-0.79072 0.1034-1.5085l-0.15206-0.1034-0.36495-0.15206-0.9367-0.31629z"/>
   <path d="m31.723 282.92v2.95q-0.03649 0.69341 0.05474 1.1861v0.36494l-0.05474 0.10341q0.06691 0.0487 0.05474 0.1034v0.15206l-0.05474 1.034q0.07907 0.29804 0 0.57175l0.05474 0.31021-0.05474 0.15206 0.05474 0.2068v2.2748q0 0.49268 0 0.82721-0.03041 0.43186 0.25546 0.67516 0.49268-0.10341 0.88196 0h0.15206q0.31021-0.10341 0.57175-0.10341l0.04866-0.36494v-1.1861l-0.04866-0.46835 0.04866-0.20681q-0.02433-0.41361 0.05474-0.72381l-0.05474-0.15206v-1.916q-0.02433-0.40145 0-0.66907v-0.20681q-0.1034-0.48051 0-0.88196l-0.04866-0.15206q0.02433-0.37711 0-0.62041 0.06082-0.46835-0.05474-0.88196l0.05474-0.15206v-0.46835q0-0.27371 0.04866-0.41361-0.06691-0.60824 0.1034-1.0827-0.21897-0.18247-0.15206-0.36494h-1.551zm3.6738 0.1034-0.05474 0.15814-0.1034 0.41361q-0.02433 0.56567-0.25546 0.93062-0.01825 0.96711-0.46835 1.6544v0.56567l0.05474 0.15814v0.20681q-0.06691 0.27979-0.05474 0.51701v1.3442l0.1034 0.10341q0.02433 0.29804 0.15814 0.51701l-0.05474 0.2068 0.15814 0.2068v0.35887l0.1034 0.26155v0.35886q0.2068 0.37711 0.2068 0.72382l-0.05474 0.15814q0.1034 0.0912 0.1034 0.2068v0.25547l0.1034 0.15814q0.01216 0.29804 0 0.51701 0.19464 0.4501 0.2068 0.82722h0.31021l0.15814-0.10341 0.35887 0.10341 0.36495-0.10341q0.33454 0.0669 0.56567 0l0.1034-0.36494-0.1034-0.25547-0.04866-0.26154-0.15814-0.82722q-0.04866-0.1399-0.04866-0.25546v-0.15815q-0.15814-0.35886-0.15814-0.62041-0.1034-0.3102-0.1034-0.56567l-0.04866-0.26154q-0.13381-0.4866-0.15814-0.82722v-0.15206q-0.04866-0.0791-0.04866-0.15815l-0.05474-0.15206-0.04866-0.15814v-0.35887q-0.22505-0.60824-0.2068-1.1922l0.1034-0.1034q0.04866-0.66908 0.25546-1.1374l0.05474-0.2068q0.11557-0.33454 0.15206-0.56567l0.05474-0.15814 0.1034-0.10341v-0.15206l0.04866-0.2068 0.05474-0.15815 0.31021-1.4963-0.2068-0.0547h-0.72381q-0.57175 0.0547-0.93062 0z"/>
   <path d="m38.986 282.57q-0.18247 0.22505-0.31629 0.31628 0.1034 0.70557 0.05474 1.1496v0.73598q-0.05474 0.60216-0.05474 0.94278v7.1165q-0.01216 0.4866 0.05474 0.83938l0.31021 0.0547 0.21289-0.1034h0.2068l0.57784 0.1034h2.2505l0.15814 0.0487h0.68124q0.4866-0.0243 0.83938 0.0548 0.04866-0.0912 0.1034-0.10341l0.05474-0.15814v-0.26155l0.04866-0.15814v-1.2043l0.05474-0.15814q-0.23722-0.17031-0.47443-0.20681l-0.26155 0.0487h-1.624l-0.15814-0.0487h-0.15206l-1.0523 0.0487 0.10948-0.4136v-0.15815l0.04866-0.37103v-1.8795l0.15814 0.1034h0.47443q0.29804 0.0243 0.52309 0l0.15206 0.0487q0.35886-0.1034 0.63258-0.0487l0.2068-0.21289 0.05474-0.1034v-1.4659l-0.15814-0.15815h-0.68123q-0.70557-0.0487-1.2591 0.1034l-0.26155-0.1034v-0.2068l0.10948-0.15815v-0.21288q0.04866-0.38928 0.04866-0.6265v-0.3102q-0.02433-0.62041 0.05474-1.0523h0.2068q0.29196 0.0122 0.52309 0.10948 0.41969 0.0122 0.73598-0.0547 0.39536 0.0243 0.62649 0 0.83938 0.1034 1.3625 0l0.15814-0.26154-0.05474-0.21289 0.05474-0.36495q-0.15814-0.37711 0-0.68124-0.09124-0.12773-0.1034-0.26154h-0.31629q-0.53526 0.0304-0.88804-0.0487l-0.26155 0.0487h-0.21289q-0.41969-0.0487-0.7299 0h-0.15814l-0.36495-0.0487-0.10948 0.0487q-0.36495-0.0791-0.62649-0.0487h-0.15814l-0.15814-0.0547h-0.57175z"/>
   <path d="m46.936 282.63q-0.52309 0.1034-0.94278 0.0547-0.22505 0.1399-0.47443 0.15815v0.15206q0.07907 0.71165 0.05474 1.1557l0.04866 0.68732-0.04866 0.2068v0.57784q0.09124 0.72381 0.04866 1.1557v0.37103q-0.01216 0.7968 0.05474 1.3138v0.26155l-0.05474 0.15814 0.05474 0.15814q-0.04258 0.49877 0 0.83938l-0.05474 0.26155q0.04258 0.41969 0 0.73598v0.26155l0.05474 0.15814v2.4695h1.7335l0.15814-0.36495v-1.0523l-0.05474-1.1557-0.05474-0.37103q0.09732-0.6934 0.05474-1.1557v-0.36495q-0.03649-1.0097 0.05474-1.6301l-0.05474-0.15815v-0.41969q0.04258-0.48659 0-0.83938v-0.57783l-0.05474-0.21289v-0.36495l0.05474-0.26154-0.05474-0.15815v-0.94886l0.05474-0.1034q-0.09124-0.4866-0.05474-0.83938-0.31021-0.12165-0.52309-0.15815zm2.0985 0.0547q-0.63866 0.0608-0.6265 0.6265 0.26155 0.49876 0.1034 0.99752 1.3929 0.66907 0.68124 2.8892-0.52309 0.14597-0.68124 0.52917v0.15814q0.09124 0.61433 0.05474 1.0462l0.1034 0.31629q0.43186 0 0.68124 0.31629v0.15814q0.09124 0.36495 0.05474 0.68124v2.0498q-0.05474 0.79072 0.04866 1.3138h0.26763l0.15206-0.0547 0.10948 0.0547h0.15814l0.2068-0.0547q0.57784 0.0669 0.94886 0l0.04866-0.15814v-3.9901q-0.07907-0.19464-0.1034-0.41969l-0.15814-0.36495-0.1034-0.0547q-0.31629-0.31629-0.63258-0.4197v-0.21288q1.4476-1.1009 0.94886-2.9926-0.03041-2.2444-2.2627-2.4147z" fill="#f00"/>
  </g>
  <g transform="matrix(1.177 0 0 1.177 -2.0599 -47.313)" fill="#f00">
   <path d="m59.089 277.68c0.14998 3.9499-4.1654 7.1246-7.8909 5.8189-3.8153-1.0248-5.5797-6.0836-3.2271-9.2581 2.1065-3.3434 7.4605-3.533 9.7982-0.34699 0.85013 1.0657 1.3231 2.4232 1.3197 3.7862z"/>
   <path d="m47.572 280.41c1.7386 3.1038 3.4772 6.2076 5.2158 9.3114 1.8436-3.0338 3.6872-6.0676 5.5308-9.1014-3.5822-0.07-7.1644-0.14002-10.747-0.21003z"/>
  </g>
  <path d="m63.864 279.56a3.5846 3.5846 0 0 1-3.5846 3.5846 3.5846 3.5846 0 0 1-3.5846-3.5846 3.5846 3.5846 0 0 1 3.5846-3.5846 3.5846 3.5846 0 0 1 3.5846 3.5846z" fill="#fff"/>
 </g>
</svg>
